<mxfile host="app.diagrams.net" modified="2023-09-02T13:21:02.624Z" agent="Mozilla/5.0 (Windows NT 10.0; Win64; x64) AppleWebKit/537.36 (KHTML, like Gecko) Chrome/116.0.0.0 Safari/537.36" etag="g7k_yu3o3j9ZyA8hX7ZC" version="21.6.6" type="github">
  <diagram name="第 1 页" id="tx-E71uB_mCCh_U0jp45">
    <mxGraphModel dx="1728" dy="925" grid="1" gridSize="10" guides="1" tooltips="1" connect="1" arrows="1" fold="1" page="1" pageScale="1" pageWidth="827" pageHeight="1169" math="0" shadow="0">
      <root>
        <mxCell id="0" />
        <mxCell id="1" parent="0" />
        <mxCell id="0mewso0kz5iwo1DfUPkq-137" value="" style="rounded=0;whiteSpace=wrap;html=1;fillStyle=auto;fillColor=none;dashed=1;" vertex="1" parent="1">
          <mxGeometry x="25" y="180" width="395" height="80" as="geometry" />
        </mxCell>
        <mxCell id="0mewso0kz5iwo1DfUPkq-3" value="" style="rounded=0;whiteSpace=wrap;html=1;fillStyle=auto;fillColor=none;dashed=1;" vertex="1" parent="1">
          <mxGeometry x="430" y="230" width="550" height="80" as="geometry" />
        </mxCell>
        <mxCell id="0mewso0kz5iwo1DfUPkq-4" value="stable baselines policy" style="text;strokeColor=none;align=center;fillColor=none;html=1;verticalAlign=middle;whiteSpace=wrap;rounded=0;" vertex="1" parent="1">
          <mxGeometry x="60" y="30" width="150" height="30" as="geometry" />
        </mxCell>
        <mxCell id="0mewso0kz5iwo1DfUPkq-19" value="" style="group;fillColor=#f0f8ff;" vertex="1" connectable="0" parent="1">
          <mxGeometry x="150" y="200" width="130" height="40" as="geometry" />
        </mxCell>
        <mxCell id="0mewso0kz5iwo1DfUPkq-13" value="float" style="rounded=0;whiteSpace=wrap;html=1;fillColor=#FEFFDF;" vertex="1" parent="0mewso0kz5iwo1DfUPkq-19">
          <mxGeometry x="10" width="40" height="40" as="geometry" />
        </mxCell>
        <mxCell id="0mewso0kz5iwo1DfUPkq-14" value="input:" style="rounded=0;whiteSpace=wrap;html=1;fillColor=#FEFFDF;" vertex="1" parent="0mewso0kz5iwo1DfUPkq-19">
          <mxGeometry x="50" width="40" height="20" as="geometry" />
        </mxCell>
        <mxCell id="0mewso0kz5iwo1DfUPkq-15" value="(1, 19)" style="rounded=0;whiteSpace=wrap;html=1;" vertex="1" parent="0mewso0kz5iwo1DfUPkq-19">
          <mxGeometry x="90" width="40" height="20" as="geometry" />
        </mxCell>
        <mxCell id="0mewso0kz5iwo1DfUPkq-16" value="output:" style="rounded=0;whiteSpace=wrap;html=1;fillColor=#FEFFDF;" vertex="1" parent="0mewso0kz5iwo1DfUPkq-19">
          <mxGeometry x="50" y="20" width="40" height="20" as="geometry" />
        </mxCell>
        <mxCell id="0mewso0kz5iwo1DfUPkq-110" style="edgeStyle=orthogonalEdgeStyle;rounded=0;orthogonalLoop=1;jettySize=auto;html=1;exitX=1;exitY=0;exitDx=0;exitDy=0;" edge="1" parent="0mewso0kz5iwo1DfUPkq-19" source="0mewso0kz5iwo1DfUPkq-17">
          <mxGeometry relative="1" as="geometry">
            <mxPoint x="150" y="20.285714285714334" as="targetPoint" />
          </mxGeometry>
        </mxCell>
        <mxCell id="0mewso0kz5iwo1DfUPkq-17" value="(1, 19)" style="rounded=0;whiteSpace=wrap;html=1;fillColor=#FEFFDF;" vertex="1" parent="0mewso0kz5iwo1DfUPkq-19">
          <mxGeometry x="90" y="20" width="40" height="20" as="geometry" />
        </mxCell>
        <mxCell id="0mewso0kz5iwo1DfUPkq-20" value="" style="group" vertex="1" connectable="0" parent="1">
          <mxGeometry x="290" y="200" width="130" height="40" as="geometry" />
        </mxCell>
        <mxCell id="0mewso0kz5iwo1DfUPkq-21" value="Flatten" style="rounded=0;whiteSpace=wrap;html=1;" vertex="1" parent="0mewso0kz5iwo1DfUPkq-20">
          <mxGeometry x="10" width="40" height="40" as="geometry" />
        </mxCell>
        <mxCell id="0mewso0kz5iwo1DfUPkq-22" value="input:" style="rounded=0;whiteSpace=wrap;html=1;" vertex="1" parent="0mewso0kz5iwo1DfUPkq-20">
          <mxGeometry x="50" width="40" height="20" as="geometry" />
        </mxCell>
        <mxCell id="0mewso0kz5iwo1DfUPkq-23" value="(1, 19)" style="rounded=0;whiteSpace=wrap;html=1;" vertex="1" parent="0mewso0kz5iwo1DfUPkq-20">
          <mxGeometry x="90" width="40" height="20" as="geometry" />
        </mxCell>
        <mxCell id="0mewso0kz5iwo1DfUPkq-24" value="output:" style="rounded=0;whiteSpace=wrap;html=1;" vertex="1" parent="0mewso0kz5iwo1DfUPkq-20">
          <mxGeometry x="50" y="20" width="40" height="20" as="geometry" />
        </mxCell>
        <mxCell id="0mewso0kz5iwo1DfUPkq-25" value="(1, 19)" style="rounded=0;whiteSpace=wrap;html=1;" vertex="1" parent="0mewso0kz5iwo1DfUPkq-20">
          <mxGeometry x="90" y="20" width="40" height="20" as="geometry" />
        </mxCell>
        <mxCell id="0mewso0kz5iwo1DfUPkq-28" value="" style="group" vertex="1" connectable="0" parent="1">
          <mxGeometry x="430" y="150" width="130" height="40" as="geometry" />
        </mxCell>
        <mxCell id="0mewso0kz5iwo1DfUPkq-29" value="Linear" style="rounded=0;whiteSpace=wrap;html=1;" vertex="1" parent="0mewso0kz5iwo1DfUPkq-28">
          <mxGeometry x="10" width="40" height="40" as="geometry" />
        </mxCell>
        <mxCell id="0mewso0kz5iwo1DfUPkq-30" value="input:" style="rounded=0;whiteSpace=wrap;html=1;" vertex="1" parent="0mewso0kz5iwo1DfUPkq-28">
          <mxGeometry x="50" width="40" height="20" as="geometry" />
        </mxCell>
        <mxCell id="0mewso0kz5iwo1DfUPkq-31" value="(1, 19)" style="rounded=0;whiteSpace=wrap;html=1;" vertex="1" parent="0mewso0kz5iwo1DfUPkq-28">
          <mxGeometry x="90" width="40" height="20" as="geometry" />
        </mxCell>
        <mxCell id="0mewso0kz5iwo1DfUPkq-32" value="output:" style="rounded=0;whiteSpace=wrap;html=1;" vertex="1" parent="0mewso0kz5iwo1DfUPkq-28">
          <mxGeometry x="50" y="20" width="40" height="20" as="geometry" />
        </mxCell>
        <mxCell id="0mewso0kz5iwo1DfUPkq-113" style="edgeStyle=orthogonalEdgeStyle;rounded=0;orthogonalLoop=1;jettySize=auto;html=1;exitX=1;exitY=0;exitDx=0;exitDy=0;" edge="1" parent="0mewso0kz5iwo1DfUPkq-28" source="0mewso0kz5iwo1DfUPkq-33">
          <mxGeometry relative="1" as="geometry">
            <mxPoint x="150" y="19.862068965517324" as="targetPoint" />
          </mxGeometry>
        </mxCell>
        <mxCell id="0mewso0kz5iwo1DfUPkq-33" value="(1, 64)" style="rounded=0;whiteSpace=wrap;html=1;" vertex="1" parent="0mewso0kz5iwo1DfUPkq-28">
          <mxGeometry x="90" y="20" width="40" height="20" as="geometry" />
        </mxCell>
        <mxCell id="0mewso0kz5iwo1DfUPkq-34" value="" style="group" vertex="1" connectable="0" parent="1">
          <mxGeometry x="570" y="150" width="130" height="40" as="geometry" />
        </mxCell>
        <mxCell id="0mewso0kz5iwo1DfUPkq-35" value="Tanh" style="rounded=0;whiteSpace=wrap;html=1;" vertex="1" parent="0mewso0kz5iwo1DfUPkq-34">
          <mxGeometry x="10" width="40" height="40" as="geometry" />
        </mxCell>
        <mxCell id="0mewso0kz5iwo1DfUPkq-36" value="input:" style="rounded=0;whiteSpace=wrap;html=1;" vertex="1" parent="0mewso0kz5iwo1DfUPkq-34">
          <mxGeometry x="50" width="40" height="20" as="geometry" />
        </mxCell>
        <mxCell id="0mewso0kz5iwo1DfUPkq-37" value="(1, 64)" style="rounded=0;whiteSpace=wrap;html=1;" vertex="1" parent="0mewso0kz5iwo1DfUPkq-34">
          <mxGeometry x="90" width="40" height="20" as="geometry" />
        </mxCell>
        <mxCell id="0mewso0kz5iwo1DfUPkq-38" value="output:" style="rounded=0;whiteSpace=wrap;html=1;" vertex="1" parent="0mewso0kz5iwo1DfUPkq-34">
          <mxGeometry x="50" y="20" width="40" height="20" as="geometry" />
        </mxCell>
        <mxCell id="0mewso0kz5iwo1DfUPkq-39" value="(1, 64)" style="rounded=0;whiteSpace=wrap;html=1;" vertex="1" parent="0mewso0kz5iwo1DfUPkq-34">
          <mxGeometry x="90" y="20" width="40" height="20" as="geometry" />
        </mxCell>
        <mxCell id="0mewso0kz5iwo1DfUPkq-40" value="" style="group" vertex="1" connectable="0" parent="1">
          <mxGeometry x="710" y="150" width="130" height="40" as="geometry" />
        </mxCell>
        <mxCell id="0mewso0kz5iwo1DfUPkq-41" value="Linear" style="rounded=0;whiteSpace=wrap;html=1;" vertex="1" parent="0mewso0kz5iwo1DfUPkq-40">
          <mxGeometry x="10" width="40" height="40" as="geometry" />
        </mxCell>
        <mxCell id="0mewso0kz5iwo1DfUPkq-42" value="input:" style="rounded=0;whiteSpace=wrap;html=1;" vertex="1" parent="0mewso0kz5iwo1DfUPkq-40">
          <mxGeometry x="50" width="40" height="20" as="geometry" />
        </mxCell>
        <mxCell id="0mewso0kz5iwo1DfUPkq-43" value="(1, 64)" style="rounded=0;whiteSpace=wrap;html=1;" vertex="1" parent="0mewso0kz5iwo1DfUPkq-40">
          <mxGeometry x="90" width="40" height="20" as="geometry" />
        </mxCell>
        <mxCell id="0mewso0kz5iwo1DfUPkq-44" value="output:" style="rounded=0;whiteSpace=wrap;html=1;" vertex="1" parent="0mewso0kz5iwo1DfUPkq-40">
          <mxGeometry x="50" y="20" width="40" height="20" as="geometry" />
        </mxCell>
        <mxCell id="0mewso0kz5iwo1DfUPkq-45" value="(1, 64)" style="rounded=0;whiteSpace=wrap;html=1;" vertex="1" parent="0mewso0kz5iwo1DfUPkq-40">
          <mxGeometry x="90" y="20" width="40" height="20" as="geometry" />
        </mxCell>
        <mxCell id="0mewso0kz5iwo1DfUPkq-46" value="" style="group" vertex="1" connectable="0" parent="1">
          <mxGeometry x="850" y="150" width="130" height="40" as="geometry" />
        </mxCell>
        <mxCell id="0mewso0kz5iwo1DfUPkq-47" value="Tanh" style="rounded=0;whiteSpace=wrap;html=1;" vertex="1" parent="0mewso0kz5iwo1DfUPkq-46">
          <mxGeometry x="10" width="40" height="40" as="geometry" />
        </mxCell>
        <mxCell id="0mewso0kz5iwo1DfUPkq-48" value="input:" style="rounded=0;whiteSpace=wrap;html=1;" vertex="1" parent="0mewso0kz5iwo1DfUPkq-46">
          <mxGeometry x="50" width="40" height="20" as="geometry" />
        </mxCell>
        <mxCell id="0mewso0kz5iwo1DfUPkq-49" value="(1, 64)" style="rounded=0;whiteSpace=wrap;html=1;" vertex="1" parent="0mewso0kz5iwo1DfUPkq-46">
          <mxGeometry x="90" width="40" height="20" as="geometry" />
        </mxCell>
        <mxCell id="0mewso0kz5iwo1DfUPkq-50" value="output:" style="rounded=0;whiteSpace=wrap;html=1;" vertex="1" parent="0mewso0kz5iwo1DfUPkq-46">
          <mxGeometry x="50" y="20" width="40" height="20" as="geometry" />
        </mxCell>
        <mxCell id="0mewso0kz5iwo1DfUPkq-116" style="edgeStyle=orthogonalEdgeStyle;rounded=0;orthogonalLoop=1;jettySize=auto;html=1;exitX=1;exitY=0;exitDx=0;exitDy=0;" edge="1" parent="0mewso0kz5iwo1DfUPkq-46" source="0mewso0kz5iwo1DfUPkq-51">
          <mxGeometry relative="1" as="geometry">
            <mxPoint x="150" y="19.862068965517324" as="targetPoint" />
          </mxGeometry>
        </mxCell>
        <mxCell id="0mewso0kz5iwo1DfUPkq-51" value="(1, 64)" style="rounded=0;whiteSpace=wrap;html=1;" vertex="1" parent="0mewso0kz5iwo1DfUPkq-46">
          <mxGeometry x="90" y="20" width="40" height="20" as="geometry" />
        </mxCell>
        <mxCell id="0mewso0kz5iwo1DfUPkq-52" value="" style="group" vertex="1" connectable="0" parent="1">
          <mxGeometry x="990" y="150" width="140" height="60" as="geometry" />
        </mxCell>
        <mxCell id="0mewso0kz5iwo1DfUPkq-53" value="Linear" style="rounded=0;whiteSpace=wrap;html=1;" vertex="1" parent="0mewso0kz5iwo1DfUPkq-52">
          <mxGeometry x="10" width="40" height="40" as="geometry" />
        </mxCell>
        <mxCell id="0mewso0kz5iwo1DfUPkq-54" value="input:" style="rounded=0;whiteSpace=wrap;html=1;" vertex="1" parent="0mewso0kz5iwo1DfUPkq-52">
          <mxGeometry x="50" width="40" height="20" as="geometry" />
        </mxCell>
        <mxCell id="0mewso0kz5iwo1DfUPkq-55" value="(1, 64)" style="rounded=0;whiteSpace=wrap;html=1;" vertex="1" parent="0mewso0kz5iwo1DfUPkq-52">
          <mxGeometry x="90" width="40" height="20" as="geometry" />
        </mxCell>
        <mxCell id="0mewso0kz5iwo1DfUPkq-56" value="output:" style="rounded=0;whiteSpace=wrap;html=1;" vertex="1" parent="0mewso0kz5iwo1DfUPkq-52">
          <mxGeometry x="50" y="20" width="40" height="20" as="geometry" />
        </mxCell>
        <mxCell id="0mewso0kz5iwo1DfUPkq-57" value="(1, 1)" style="rounded=0;whiteSpace=wrap;html=1;" vertex="1" parent="0mewso0kz5iwo1DfUPkq-52">
          <mxGeometry x="90" y="20" width="40" height="20" as="geometry" />
        </mxCell>
        <mxCell id="0mewso0kz5iwo1DfUPkq-132" value="" style="rounded=0;whiteSpace=wrap;html=1;fillStyle=auto;fillColor=none;dashed=1;" vertex="1" parent="0mewso0kz5iwo1DfUPkq-52">
          <mxGeometry y="-20" width="140" height="80" as="geometry" />
        </mxCell>
        <mxCell id="0mewso0kz5iwo1DfUPkq-59" value="" style="group" vertex="1" connectable="0" parent="1">
          <mxGeometry x="430" y="250" width="130" height="40" as="geometry" />
        </mxCell>
        <mxCell id="0mewso0kz5iwo1DfUPkq-60" value="Linear" style="rounded=0;whiteSpace=wrap;html=1;" vertex="1" parent="0mewso0kz5iwo1DfUPkq-59">
          <mxGeometry x="10" width="40" height="40" as="geometry" />
        </mxCell>
        <mxCell id="0mewso0kz5iwo1DfUPkq-61" value="input:" style="rounded=0;whiteSpace=wrap;html=1;" vertex="1" parent="0mewso0kz5iwo1DfUPkq-59">
          <mxGeometry x="50" width="40" height="20" as="geometry" />
        </mxCell>
        <mxCell id="0mewso0kz5iwo1DfUPkq-62" value="(1, 19)" style="rounded=0;whiteSpace=wrap;html=1;" vertex="1" parent="0mewso0kz5iwo1DfUPkq-59">
          <mxGeometry x="90" width="40" height="20" as="geometry" />
        </mxCell>
        <mxCell id="0mewso0kz5iwo1DfUPkq-63" value="output:" style="rounded=0;whiteSpace=wrap;html=1;" vertex="1" parent="0mewso0kz5iwo1DfUPkq-59">
          <mxGeometry x="50" y="20" width="40" height="20" as="geometry" />
        </mxCell>
        <mxCell id="0mewso0kz5iwo1DfUPkq-118" style="edgeStyle=orthogonalEdgeStyle;rounded=0;orthogonalLoop=1;jettySize=auto;html=1;exitX=1;exitY=0;exitDx=0;exitDy=0;" edge="1" parent="0mewso0kz5iwo1DfUPkq-59" source="0mewso0kz5iwo1DfUPkq-64">
          <mxGeometry relative="1" as="geometry">
            <mxPoint x="150" y="19.862068965517324" as="targetPoint" />
          </mxGeometry>
        </mxCell>
        <mxCell id="0mewso0kz5iwo1DfUPkq-64" value="(1, 64)" style="rounded=0;whiteSpace=wrap;html=1;" vertex="1" parent="0mewso0kz5iwo1DfUPkq-59">
          <mxGeometry x="90" y="20" width="40" height="20" as="geometry" />
        </mxCell>
        <mxCell id="0mewso0kz5iwo1DfUPkq-65" value="" style="group" vertex="1" connectable="0" parent="1">
          <mxGeometry x="570" y="250" width="130" height="40" as="geometry" />
        </mxCell>
        <mxCell id="0mewso0kz5iwo1DfUPkq-66" value="Tanh" style="rounded=0;whiteSpace=wrap;html=1;" vertex="1" parent="0mewso0kz5iwo1DfUPkq-65">
          <mxGeometry x="10" width="40" height="40" as="geometry" />
        </mxCell>
        <mxCell id="0mewso0kz5iwo1DfUPkq-67" value="input:" style="rounded=0;whiteSpace=wrap;html=1;" vertex="1" parent="0mewso0kz5iwo1DfUPkq-65">
          <mxGeometry x="50" width="40" height="20" as="geometry" />
        </mxCell>
        <mxCell id="0mewso0kz5iwo1DfUPkq-68" value="(1, 64)" style="rounded=0;whiteSpace=wrap;html=1;" vertex="1" parent="0mewso0kz5iwo1DfUPkq-65">
          <mxGeometry x="90" width="40" height="20" as="geometry" />
        </mxCell>
        <mxCell id="0mewso0kz5iwo1DfUPkq-69" value="output:" style="rounded=0;whiteSpace=wrap;html=1;" vertex="1" parent="0mewso0kz5iwo1DfUPkq-65">
          <mxGeometry x="50" y="20" width="40" height="20" as="geometry" />
        </mxCell>
        <mxCell id="0mewso0kz5iwo1DfUPkq-70" value="(1, 64)" style="rounded=0;whiteSpace=wrap;html=1;" vertex="1" parent="0mewso0kz5iwo1DfUPkq-65">
          <mxGeometry x="90" y="20" width="40" height="20" as="geometry" />
        </mxCell>
        <mxCell id="0mewso0kz5iwo1DfUPkq-71" value="" style="group" vertex="1" connectable="0" parent="1">
          <mxGeometry x="710" y="250" width="130" height="40" as="geometry" />
        </mxCell>
        <mxCell id="0mewso0kz5iwo1DfUPkq-72" value="Linear" style="rounded=0;whiteSpace=wrap;html=1;" vertex="1" parent="0mewso0kz5iwo1DfUPkq-71">
          <mxGeometry x="10" width="40" height="40" as="geometry" />
        </mxCell>
        <mxCell id="0mewso0kz5iwo1DfUPkq-73" value="input:" style="rounded=0;whiteSpace=wrap;html=1;" vertex="1" parent="0mewso0kz5iwo1DfUPkq-71">
          <mxGeometry x="50" width="40" height="20" as="geometry" />
        </mxCell>
        <mxCell id="0mewso0kz5iwo1DfUPkq-74" value="(1, 64)" style="rounded=0;whiteSpace=wrap;html=1;" vertex="1" parent="0mewso0kz5iwo1DfUPkq-71">
          <mxGeometry x="90" width="40" height="20" as="geometry" />
        </mxCell>
        <mxCell id="0mewso0kz5iwo1DfUPkq-75" value="output:" style="rounded=0;whiteSpace=wrap;html=1;" vertex="1" parent="0mewso0kz5iwo1DfUPkq-71">
          <mxGeometry x="50" y="20" width="40" height="20" as="geometry" />
        </mxCell>
        <mxCell id="0mewso0kz5iwo1DfUPkq-120" style="edgeStyle=orthogonalEdgeStyle;rounded=0;orthogonalLoop=1;jettySize=auto;html=1;exitX=1;exitY=0;exitDx=0;exitDy=0;" edge="1" parent="0mewso0kz5iwo1DfUPkq-71" source="0mewso0kz5iwo1DfUPkq-76">
          <mxGeometry relative="1" as="geometry">
            <mxPoint x="150" y="19.862068965517324" as="targetPoint" />
          </mxGeometry>
        </mxCell>
        <mxCell id="0mewso0kz5iwo1DfUPkq-76" value="(1, 64)" style="rounded=0;whiteSpace=wrap;html=1;" vertex="1" parent="0mewso0kz5iwo1DfUPkq-71">
          <mxGeometry x="90" y="20" width="40" height="20" as="geometry" />
        </mxCell>
        <mxCell id="0mewso0kz5iwo1DfUPkq-77" value="" style="group" vertex="1" connectable="0" parent="1">
          <mxGeometry x="850" y="250" width="130" height="40" as="geometry" />
        </mxCell>
        <mxCell id="0mewso0kz5iwo1DfUPkq-78" value="Tanh" style="rounded=0;whiteSpace=wrap;html=1;" vertex="1" parent="0mewso0kz5iwo1DfUPkq-77">
          <mxGeometry x="10" width="40" height="40" as="geometry" />
        </mxCell>
        <mxCell id="0mewso0kz5iwo1DfUPkq-79" value="input:" style="rounded=0;whiteSpace=wrap;html=1;" vertex="1" parent="0mewso0kz5iwo1DfUPkq-77">
          <mxGeometry x="50" width="40" height="20" as="geometry" />
        </mxCell>
        <mxCell id="0mewso0kz5iwo1DfUPkq-80" value="(1, 64)" style="rounded=0;whiteSpace=wrap;html=1;" vertex="1" parent="0mewso0kz5iwo1DfUPkq-77">
          <mxGeometry x="90" width="40" height="20" as="geometry" />
        </mxCell>
        <mxCell id="0mewso0kz5iwo1DfUPkq-81" value="output:" style="rounded=0;whiteSpace=wrap;html=1;" vertex="1" parent="0mewso0kz5iwo1DfUPkq-77">
          <mxGeometry x="50" y="20" width="40" height="20" as="geometry" />
        </mxCell>
        <mxCell id="0mewso0kz5iwo1DfUPkq-82" value="(1, 64)" style="rounded=0;whiteSpace=wrap;html=1;" vertex="1" parent="0mewso0kz5iwo1DfUPkq-77">
          <mxGeometry x="90" y="20" width="40" height="20" as="geometry" />
        </mxCell>
        <mxCell id="0mewso0kz5iwo1DfUPkq-83" value="" style="group" vertex="1" connectable="0" parent="1">
          <mxGeometry x="990" y="250" width="140" height="40" as="geometry" />
        </mxCell>
        <mxCell id="0mewso0kz5iwo1DfUPkq-84" value="Linear" style="rounded=0;whiteSpace=wrap;html=1;" vertex="1" parent="0mewso0kz5iwo1DfUPkq-83">
          <mxGeometry x="10" width="40" height="40" as="geometry" />
        </mxCell>
        <mxCell id="0mewso0kz5iwo1DfUPkq-85" value="input:" style="rounded=0;whiteSpace=wrap;html=1;" vertex="1" parent="0mewso0kz5iwo1DfUPkq-83">
          <mxGeometry x="50" width="40" height="20" as="geometry" />
        </mxCell>
        <mxCell id="0mewso0kz5iwo1DfUPkq-86" value="(1, 64)" style="rounded=0;whiteSpace=wrap;html=1;" vertex="1" parent="0mewso0kz5iwo1DfUPkq-83">
          <mxGeometry x="90" width="50" height="20" as="geometry" />
        </mxCell>
        <mxCell id="0mewso0kz5iwo1DfUPkq-87" value="output:" style="rounded=0;whiteSpace=wrap;html=1;" vertex="1" parent="0mewso0kz5iwo1DfUPkq-83">
          <mxGeometry x="50" y="20" width="40" height="20" as="geometry" />
        </mxCell>
        <mxCell id="0mewso0kz5iwo1DfUPkq-88" value="&lt;font style=&quot;font-size: 10px;&quot;&gt;(1, 140)&lt;/font&gt;" style="rounded=0;whiteSpace=wrap;html=1;fontSize=10;" vertex="1" parent="0mewso0kz5iwo1DfUPkq-83">
          <mxGeometry x="90" y="20" width="50" height="20" as="geometry" />
        </mxCell>
        <mxCell id="0mewso0kz5iwo1DfUPkq-89" value="" style="group" vertex="1" connectable="0" parent="1">
          <mxGeometry x="1170" y="150" width="130" height="40" as="geometry" />
        </mxCell>
        <mxCell id="0mewso0kz5iwo1DfUPkq-90" value="output-tensor" style="rounded=0;whiteSpace=wrap;html=1;" vertex="1" parent="0mewso0kz5iwo1DfUPkq-89">
          <mxGeometry x="-30" width="80" height="40" as="geometry" />
        </mxCell>
        <mxCell id="0mewso0kz5iwo1DfUPkq-91" value="(1, 1)" style="rounded=0;whiteSpace=wrap;html=1;" vertex="1" parent="0mewso0kz5iwo1DfUPkq-89">
          <mxGeometry x="50" width="40" height="40" as="geometry" />
        </mxCell>
        <mxCell id="0mewso0kz5iwo1DfUPkq-95" value="" style="group" vertex="1" connectable="0" parent="1">
          <mxGeometry x="1130" y="250" width="240" height="60" as="geometry" />
        </mxCell>
        <mxCell id="0mewso0kz5iwo1DfUPkq-96" value="split" style="rounded=0;whiteSpace=wrap;html=1;" vertex="1" parent="0mewso0kz5iwo1DfUPkq-95">
          <mxGeometry x="20" width="30" height="40" as="geometry" />
        </mxCell>
        <mxCell id="0mewso0kz5iwo1DfUPkq-97" value="input:" style="rounded=0;whiteSpace=wrap;html=1;" vertex="1" parent="0mewso0kz5iwo1DfUPkq-95">
          <mxGeometry x="50" width="40" height="20" as="geometry" />
        </mxCell>
        <mxCell id="0mewso0kz5iwo1DfUPkq-98" value="(1, 140)" style="rounded=0;whiteSpace=wrap;html=1;" vertex="1" parent="0mewso0kz5iwo1DfUPkq-95">
          <mxGeometry x="90" width="130" height="20" as="geometry" />
        </mxCell>
        <mxCell id="0mewso0kz5iwo1DfUPkq-99" value="output:" style="rounded=0;whiteSpace=wrap;html=1;" vertex="1" parent="0mewso0kz5iwo1DfUPkq-95">
          <mxGeometry x="50" y="20" width="40" height="20" as="geometry" />
        </mxCell>
        <mxCell id="0mewso0kz5iwo1DfUPkq-100" value="10*(1, 140), 10*(1, 10)" style="rounded=0;whiteSpace=wrap;html=1;" vertex="1" parent="0mewso0kz5iwo1DfUPkq-95">
          <mxGeometry x="90" y="20" width="130" height="20" as="geometry" />
        </mxCell>
        <mxCell id="0mewso0kz5iwo1DfUPkq-135" value="" style="rounded=0;whiteSpace=wrap;html=1;fillStyle=auto;fillColor=none;dashed=1;" vertex="1" parent="0mewso0kz5iwo1DfUPkq-95">
          <mxGeometry x="-140" y="-20" width="140" height="80" as="geometry" />
        </mxCell>
        <mxCell id="0mewso0kz5iwo1DfUPkq-124" style="edgeStyle=orthogonalEdgeStyle;rounded=0;orthogonalLoop=1;jettySize=auto;html=1;exitX=1;exitY=0.5;exitDx=0;exitDy=0;entryX=0;entryY=0.5;entryDx=0;entryDy=0;" edge="1" parent="1" source="0mewso0kz5iwo1DfUPkq-101" target="0mewso0kz5iwo1DfUPkq-103">
          <mxGeometry relative="1" as="geometry" />
        </mxCell>
        <mxCell id="0mewso0kz5iwo1DfUPkq-101" value="&lt;div style=&quot;&quot;&gt;&lt;span style=&quot;font-size: 20px; background-color: initial;&quot;&gt;...&lt;/span&gt;&lt;/div&gt;" style="text;strokeColor=none;align=center;fillColor=none;html=1;verticalAlign=middle;whiteSpace=wrap;rounded=0;" vertex="1" parent="1">
          <mxGeometry x="1380" y="262.5" width="20" height="15" as="geometry" />
        </mxCell>
        <mxCell id="0mewso0kz5iwo1DfUPkq-102" value="" style="group" vertex="1" connectable="0" parent="1">
          <mxGeometry x="1460" y="250" width="130" height="40" as="geometry" />
        </mxCell>
        <mxCell id="0mewso0kz5iwo1DfUPkq-103" value="output-tensor" style="rounded=0;whiteSpace=wrap;html=1;" vertex="1" parent="0mewso0kz5iwo1DfUPkq-102">
          <mxGeometry x="-30" width="80" height="40" as="geometry" />
        </mxCell>
        <mxCell id="0mewso0kz5iwo1DfUPkq-104" value="(1)" style="rounded=0;whiteSpace=wrap;html=1;" vertex="1" parent="0mewso0kz5iwo1DfUPkq-102">
          <mxGeometry x="50" width="40" height="40" as="geometry" />
        </mxCell>
        <mxCell id="0mewso0kz5iwo1DfUPkq-105" value="" style="group;fillColor=#FEFFDF;fillStyle=auto;" vertex="1" connectable="0" parent="1">
          <mxGeometry x="30" y="200" width="110" height="40" as="geometry" />
        </mxCell>
        <mxCell id="0mewso0kz5iwo1DfUPkq-11" value="input-tensor" style="rounded=0;whiteSpace=wrap;html=1;" vertex="1" parent="0mewso0kz5iwo1DfUPkq-105">
          <mxGeometry width="70" height="40" as="geometry" />
        </mxCell>
        <mxCell id="0mewso0kz5iwo1DfUPkq-12" value="(1, 19)" style="rounded=0;whiteSpace=wrap;html=1;fillColor=#feffdf;gradientColor=none;" vertex="1" parent="0mewso0kz5iwo1DfUPkq-105">
          <mxGeometry x="70" width="40" height="40" as="geometry" />
        </mxCell>
        <mxCell id="0mewso0kz5iwo1DfUPkq-109" style="edgeStyle=orthogonalEdgeStyle;rounded=0;orthogonalLoop=1;jettySize=auto;html=1;exitX=1;exitY=0.5;exitDx=0;exitDy=0;entryX=0;entryY=0.5;entryDx=0;entryDy=0;" edge="1" parent="1" source="0mewso0kz5iwo1DfUPkq-12" target="0mewso0kz5iwo1DfUPkq-13">
          <mxGeometry relative="1" as="geometry" />
        </mxCell>
        <mxCell id="0mewso0kz5iwo1DfUPkq-111" style="rounded=0;orthogonalLoop=1;jettySize=auto;html=1;exitX=1;exitY=0;exitDx=0;exitDy=0;entryX=0;entryY=0.5;entryDx=0;entryDy=0;" edge="1" parent="1" source="0mewso0kz5iwo1DfUPkq-25" target="0mewso0kz5iwo1DfUPkq-29">
          <mxGeometry relative="1" as="geometry" />
        </mxCell>
        <mxCell id="0mewso0kz5iwo1DfUPkq-112" style="rounded=0;orthogonalLoop=1;jettySize=auto;html=1;exitX=1;exitY=0;exitDx=0;exitDy=0;entryX=0;entryY=0.5;entryDx=0;entryDy=0;" edge="1" parent="1" source="0mewso0kz5iwo1DfUPkq-25" target="0mewso0kz5iwo1DfUPkq-60">
          <mxGeometry relative="1" as="geometry" />
        </mxCell>
        <mxCell id="0mewso0kz5iwo1DfUPkq-114" style="edgeStyle=orthogonalEdgeStyle;rounded=0;orthogonalLoop=1;jettySize=auto;html=1;exitX=1;exitY=0;exitDx=0;exitDy=0;entryX=0;entryY=0.5;entryDx=0;entryDy=0;" edge="1" parent="1" source="0mewso0kz5iwo1DfUPkq-39" target="0mewso0kz5iwo1DfUPkq-41">
          <mxGeometry relative="1" as="geometry" />
        </mxCell>
        <mxCell id="0mewso0kz5iwo1DfUPkq-115" style="edgeStyle=orthogonalEdgeStyle;rounded=0;orthogonalLoop=1;jettySize=auto;html=1;exitX=1;exitY=0;exitDx=0;exitDy=0;entryX=0;entryY=0.5;entryDx=0;entryDy=0;" edge="1" parent="1" source="0mewso0kz5iwo1DfUPkq-45" target="0mewso0kz5iwo1DfUPkq-47">
          <mxGeometry relative="1" as="geometry" />
        </mxCell>
        <mxCell id="0mewso0kz5iwo1DfUPkq-117" style="edgeStyle=orthogonalEdgeStyle;rounded=0;orthogonalLoop=1;jettySize=auto;html=1;exitX=1;exitY=0;exitDx=0;exitDy=0;entryX=0;entryY=0.5;entryDx=0;entryDy=0;" edge="1" parent="1" source="0mewso0kz5iwo1DfUPkq-57" target="0mewso0kz5iwo1DfUPkq-90">
          <mxGeometry relative="1" as="geometry" />
        </mxCell>
        <mxCell id="0mewso0kz5iwo1DfUPkq-119" style="edgeStyle=orthogonalEdgeStyle;rounded=0;orthogonalLoop=1;jettySize=auto;html=1;exitX=1;exitY=1;exitDx=0;exitDy=0;entryX=0;entryY=0.5;entryDx=0;entryDy=0;" edge="1" parent="1" source="0mewso0kz5iwo1DfUPkq-68" target="0mewso0kz5iwo1DfUPkq-72">
          <mxGeometry relative="1" as="geometry" />
        </mxCell>
        <mxCell id="0mewso0kz5iwo1DfUPkq-121" style="edgeStyle=orthogonalEdgeStyle;rounded=0;orthogonalLoop=1;jettySize=auto;html=1;exitX=1;exitY=0;exitDx=0;exitDy=0;entryX=0;entryY=0.5;entryDx=0;entryDy=0;" edge="1" parent="1" source="0mewso0kz5iwo1DfUPkq-82" target="0mewso0kz5iwo1DfUPkq-84">
          <mxGeometry relative="1" as="geometry" />
        </mxCell>
        <mxCell id="0mewso0kz5iwo1DfUPkq-123" style="edgeStyle=orthogonalEdgeStyle;rounded=0;orthogonalLoop=1;jettySize=auto;html=1;exitX=1;exitY=0;exitDx=0;exitDy=0;entryX=0;entryY=0.5;entryDx=0;entryDy=0;" edge="1" parent="1" source="0mewso0kz5iwo1DfUPkq-100" target="0mewso0kz5iwo1DfUPkq-101">
          <mxGeometry relative="1" as="geometry" />
        </mxCell>
        <mxCell id="0mewso0kz5iwo1DfUPkq-127" value="" style="rounded=0;whiteSpace=wrap;html=1;fillStyle=auto;fillColor=none;dashed=1;" vertex="1" parent="1">
          <mxGeometry x="430" y="130" width="550" height="80" as="geometry" />
        </mxCell>
        <mxCell id="0mewso0kz5iwo1DfUPkq-128" value="policy_net" style="text;strokeColor=none;align=center;fillColor=none;html=1;verticalAlign=middle;whiteSpace=wrap;rounded=0;" vertex="1" parent="1">
          <mxGeometry x="630" y="310" width="150" height="30" as="geometry" />
        </mxCell>
        <mxCell id="0mewso0kz5iwo1DfUPkq-122" style="edgeStyle=orthogonalEdgeStyle;rounded=0;orthogonalLoop=1;jettySize=auto;html=1;exitX=1;exitY=0;exitDx=0;exitDy=0;entryX=0;entryY=0.5;entryDx=0;entryDy=0;" edge="1" parent="1" source="0mewso0kz5iwo1DfUPkq-88" target="0mewso0kz5iwo1DfUPkq-96">
          <mxGeometry relative="1" as="geometry">
            <mxPoint x="1140" y="269.8620689655173" as="targetPoint" />
          </mxGeometry>
        </mxCell>
        <mxCell id="0mewso0kz5iwo1DfUPkq-131" value="value_net" style="text;strokeColor=none;align=center;fillColor=none;html=1;verticalAlign=middle;whiteSpace=wrap;rounded=0;" vertex="1" parent="1">
          <mxGeometry x="630" y="100" width="150" height="30" as="geometry" />
        </mxCell>
        <mxCell id="0mewso0kz5iwo1DfUPkq-133" value="value_net" style="text;strokeColor=none;align=center;fillColor=none;html=1;verticalAlign=middle;whiteSpace=wrap;rounded=0;" vertex="1" parent="1">
          <mxGeometry x="985" y="100" width="150" height="30" as="geometry" />
        </mxCell>
        <mxCell id="0mewso0kz5iwo1DfUPkq-134" value="action_net" style="text;strokeColor=none;align=center;fillColor=none;html=1;verticalAlign=middle;whiteSpace=wrap;rounded=0;" vertex="1" parent="1">
          <mxGeometry x="985" y="310" width="150" height="30" as="geometry" />
        </mxCell>
        <mxCell id="0mewso0kz5iwo1DfUPkq-136" value="Features extractor" style="text;strokeColor=none;align=center;fillColor=none;html=1;verticalAlign=middle;whiteSpace=wrap;rounded=0;" vertex="1" parent="1">
          <mxGeometry x="120" y="70" width="150" height="30" as="geometry" />
        </mxCell>
        <mxCell id="0mewso0kz5iwo1DfUPkq-138" value="Mlp extractor" style="text;strokeColor=none;align=center;fillColor=none;html=1;verticalAlign=middle;whiteSpace=wrap;rounded=0;" vertex="1" parent="1">
          <mxGeometry x="746.5" y="70" width="150" height="30" as="geometry" />
        </mxCell>
        <mxCell id="0mewso0kz5iwo1DfUPkq-139" value="Predict tensor" style="text;strokeColor=none;align=center;fillColor=none;html=1;verticalAlign=middle;whiteSpace=wrap;rounded=0;" vertex="1" parent="1">
          <mxGeometry x="1200" y="70" width="150" height="30" as="geometry" />
        </mxCell>
      </root>
    </mxGraphModel>
  </diagram>
</mxfile>
